<?xml version="1.0" encoding="iso-8859-1"?>
<!-- Generator: Adobe Illustrator 19.0.1, SVG Export Plug-In . SVG Version: 6.00 Build 0)  -->
<svg version="1.1" xmlns="http://www.w3.org/2000/svg" xmlns:xlink="http://www.w3.org/1999/xlink" x="0px" y="0px"
	 viewBox="0 0 128 128" style="enable-background:new 0 0 128 128;" xml:space="preserve">
<g id="_x31_3">
	<path style="fill:#262626;" d="M99.137,47.153c-0.265-9.067-7.728-16.361-16.867-16.361c-2.327,0-4.545,0.47-6.559,1.326
		c-3.099-4.557-8.283-7.355-13.937-7.355c-5.823,0-11.273,3.038-14.347,7.969c-1.555-0.482-3.219-0.735-4.943-0.735
		c-9.308,0-16.879,7.572-16.879,16.879c0,0.205,0,0.422,0.012,0.627l-0.289-0.627C18.66,52.012,14.355,58.8,14.355,66.154
		c0,10.525,8.56,19.097,19.085,19.097h20.11v-0.76l0.205,0.193c0.024-0.036,3.026-3.195,7.089-6.173
		c1.845-1.35,3.629-2.46,5.317-3.303c2.363-1.182,4.509-1.833,6.39-1.941c0.94-0.06,1.821,0.036,2.616,0.253l0.977-3.484
		c-1.182-0.325-2.46-0.458-3.798-0.386c-2.375,0.133-5.003,0.916-7.813,2.327c-1.784,0.892-3.653,2.05-5.558,3.424
		c0.965-2.677,1.688-5.823,1.688-9.247c0-4.835-1.507-8.645-4.485-11.321c-5.389-4.811-13.552-3.967-13.889-3.943l0.386,3.605
		c0.072-0.012,6.932-0.687,11.104,3.05c2.17,1.953,3.267,4.847,3.267,8.608c0,7.439-4.063,13.552-5.486,15.481
		c0,0-17.349,0-18.121,0c-8.536,0-15.469-6.944-15.469-15.481c0-5.642,3.123-10.875,8.042-13.576
		c1.688,7.535,8.44,13.178,16.469,13.178v-3.617c-7.318,0-13.262-5.956-13.262-13.262c0-7.318,5.944-13.262,13.262-13.262
		s13.262,5.944,13.262,13.262h3.617c0-6.281-3.448-11.779-8.56-14.685c2.46-3.605,6.571-5.811,10.971-5.811
		c4.328,0,8.307,2.086,10.766,5.51c-4.328,3.05-7.15,8.09-7.15,13.781c0,5.618,2.785,10.851,7.439,13.998l2.025-3.002
		c-3.665-2.472-5.847-6.583-5.847-10.996c0-7.318,5.944-13.262,13.262-13.262c7.137,0,12.985,5.667,13.25,12.744
		c-9.669,0.916-17.265,9.091-17.265,19.001h3.617c0-8.524,6.932-15.469,15.469-15.469s15.469,6.945,15.469,15.469
		c0,8.536-6.932,15.481-15.469,15.481H75.663v3.617H97.34c10.525,0,19.085-8.572,19.085-19.097
		C116.426,56.244,108.83,48.057,99.137,47.153z M111.344,43.52l-1.579-3.254l12.475-6.051l1.579,3.254L111.344,43.52z M16.656,43.52
		L4.18,37.469l1.579-3.254l12.475,6.051L16.656,43.52z M99.843,29.71l-2.557-2.557l9.804-9.804l2.557,2.557L99.843,29.71z
		 M26.952,29.71l-9.804-9.804l2.557-2.557l9.804,9.804L26.952,29.71z M41.537,18.89L35.904,6.221l3.305-1.469l5.634,12.669
		L41.537,18.89z M83.099,17.898l-3.371-1.309l5.023-12.923l3.371,1.309L83.099,17.898z M65.206,13.865h-3.617V0h3.617V13.865z
		 M55.933,128l6.885-26.897H50.554l13.378-21.298l5.678-1.137l-3.223,13.164h12.265L55.933,128z"/>
</g>
<g id="Layer_1">
</g>
</svg>
